<?xml version="1.0" encoding="UTF-8"?>
<!DOCTYPE svg PUBLIC "-//W3C//DTD SVG 1.1//EN" "http://www.w3.org/Graphics/SVG/1.1/DTD/svg11.dtd">
<!-- Creator: CorelDRAW 2021 (64 Bit) -->
<svg xmlns="http://www.w3.org/2000/svg" xml:space="preserve" width="109.533mm" height="28.6421mm" version="1.1" style="shape-rendering:geometricPrecision; text-rendering:geometricPrecision; image-rendering:optimizeQuality; fill-rule:evenodd; clip-rule:evenodd"
viewBox="0 0 10952.28 2863.93"
 xmlns:xlink="http://www.w3.org/1999/xlink"
 xmlns:xodm="http://www.corel.com/coreldraw/odm/2003">
 <defs>
  <style type="text/css">
   <![CDATA[
    .fil5 {fill:none}
    .fil2 {fill:#0C1B20}
    .fil7 {fill:#C9E7F5}
    .fil8 {fill:#E9F5FB}
    .fil0 {fill:#F8FCFE}
    .fil10 {fill:#F8FCFE;fill-rule:nonzero}
    .fil4 {fill:#4E3822;fill-opacity:0.149020}
    .fil9 {fill:#C9E7F5;fill-opacity:0.501961}
    .fil1 {fill:url(#id2)}
    .fil3 {fill:url(#id3)}
    .fil6 {fill:url(#id4)}
   ]]>
  </style>
      <clipPath id="id0">
       <path d="M1123.07 1571.85c0,-291.4 145.24,-548.87 367.27,-703.97 109.79,134.47 167.45,297.06 167.45,470.35 0,293.45 -169.84,547.23 -416.58,668.4 -75.08,-127.5 -118.15,-276.1 -118.15,-434.78z"/>
      </clipPath>
      <clipPath id="id1">
       <path d="M693.4 1571.85c0,-291.4 -145.24,-548.87 -367.27,-703.97 -109.79,134.47 -167.45,297.06 -167.45,470.35 0,293.45 169.84,547.23 416.59,668.4 75.07,-127.5 118.14,-276.1 118.14,-434.78z"/>
      </clipPath>
  <linearGradient id="id2" gradientUnits="userSpaceOnUse" x1="908.72" y1="438.19" x2="915.56" y2="1310.55">
   <stop offset="0" style="stop-opacity:1; stop-color:#5D4229"/>
   <stop offset="0.411765" style="stop-opacity:1; stop-color:#6B4A2C"/>
   <stop offset="1" style="stop-opacity:1; stop-color:#7A5230"/>
  </linearGradient>
  <linearGradient id="id3" gradientUnits="userSpaceOnUse" x1="1808.21" y1="1435.19" x2="1123.07" y2="1437.26">
   <stop offset="0" style="stop-opacity:1; stop-color:#5D4229"/>
   <stop offset="1" style="stop-opacity:1; stop-color:#7A5230"/>
  </linearGradient>
  <linearGradient id="id4" gradientUnits="userSpaceOnUse" xlink:href="#id3" x1="-111.82" y1="1446.2" x2="693.4" y2="1437.26">
  </linearGradient>
 </defs>
 <g id="Camada_x0020_1">
  <metadata id="CorelCorpID_0Corel-Layer"/>
  <g id="_2784791191088">
   <g>
    <path class="fil0" d="M1271.66 1064.18c-244.46,201.16 -551.48,174.28 -755.91,-8.63 80.7,129.38 135.16,280.6 154.78,444.12l8.47 0 1.48 0 428.15 0 2.84 0 32.72 0c21.9,-182.55 87.22,-349.8 184.02,-488.41 -18.06,19.11 -36.98,36.82 -56.54,52.92z"/>
    <circle class="fil0" cx="908.24" cy="627.29" r="523.98"/>
    <path class="fil1" d="M1177.08 324.39c134.68,0 289.17,115.86 305.67,268.21 14.19,118.42 -22.93,242.85 -90.17,345.82 -38.77,59.35 -87.77,111.36 -142.16,151.53 -379.55,280.32 -919.7,35.35 -919.7,-460.73 0,-165.88 135.8,-304.83 306.63,-304.83 117.14,0 218.83,66.08 269.86,162.99 51.04,-96.91 135.19,-162.99 269.86,-162.99zm-306.47 501.03c4.63,32.05 17.61,62.63 37.64,90.97 19.59,-27.74 32.45,-57.62 37.32,-88.92 55.9,65.22 138.88,106.57 231.52,106.57 43.05,0 83.99,-8.94 121.12,-25.04 -7.28,20.98 -63.69,74.42 -84.16,92.82 -163.05,146.56 -450.58,146.56 -613.64,0 -20.46,-18.4 -76.87,-71.84 -84.16,-92.82 37.13,16.1 78.08,25.04 121.12,25.04 93.61,0 177.35,-42.21 233.26,-108.62zm-237.05 -405.51c116.31,0 210.6,94.28 210.6,210.59 0,116.31 -94.29,210.59 -210.6,210.59 -116.31,0 -210.59,-94.28 -210.59,-210.59 0,-116.31 94.28,-210.59 210.59,-210.59zm547.06 0c116.31,0 210.59,94.28 210.59,210.59 0,116.31 -94.28,210.59 -210.59,210.59 -116.31,0 -210.59,-94.28 -210.59,-210.59 0,-116.31 94.28,-210.59 210.59,-210.59z"/>
    <path class="fil2" d="M1181.24 509.93c66.58,0 120.57,53.98 120.57,120.57 0,66.58 -53.98,120.56 -120.57,120.56 -66.58,0 -120.57,-53.97 -120.57,-120.56 0,-13.66 2.28,-26.8 6.47,-39.04 4.8,1.23 9.84,1.89 15.03,1.89 33.41,0 60.48,-27.09 60.48,-60.49 0,-5.49 -0.74,-10.82 -2.11,-15.88 12.71,-4.56 26.41,-7.05 40.7,-7.05z"/>
    <path class="fil2" d="M634.18 509.93c66.58,0 120.57,53.98 120.57,120.57 0,66.58 -53.98,120.56 -120.57,120.56 -66.58,0 -120.57,-53.97 -120.57,-120.56 0,-13.66 2.28,-26.8 6.47,-39.04 4.81,1.23 9.84,1.89 15.03,1.89 33.41,0 60.48,-27.09 60.48,-60.49 0,-5.49 -0.74,-10.82 -2.11,-15.88 12.72,-4.56 26.42,-7.05 40.7,-7.05z"/>
    <path class="fil2" d="M1443.38 403.23l0 -58.26 0 -198.04 0 -43.52 0 -0.1 93.84 0 0 172.31c-29.59,16.82 -45.68,53.33 -26.04,91.15 3.02,5.82 5.57,7.28 8.24,12.58 -10.59,28.18 -16.66,30.81 -24.22,73.47 -5.66,31.96 -7.11,59.14 -7.39,91.56 -0.34,40.43 18.58,42.21 55.88,42.33 27.43,0.09 73.91,5.71 88.22,-12.32 19.24,-24.27 -3.5,-141.53 -14.45,-171.21 -8.5,-23.05 -14.79,-18.42 -6.09,-31.05 27.03,-39.24 5.86,-81.76 -21.41,-96.18l0 -172.64c27.5,0 54.93,-0.16 82.27,-0.16 6.43,0 11.68,-5.26 11.68,-11.69l0 -79.78c0,-6.43 -5.25,-11.68 -11.68,-11.68 -509.47,0 -1018.55,0 -1528.02,0 -6.43,0 -11.68,5.25 -11.68,11.68l0 79.78c0,6.43 5.25,11.69 11.68,11.69 76.33,0 152.66,0 228.99,0l0 0.09 0 43.53 0 198.2 0 58.09 0 22.01 0 1.22 0.06 0.03c0.52,5.41 4.44,9.83 9.58,11.13l0 0.17 525.41 106.37 523.83 -106.02c6.35,-0.72 11.29,-6.12 11.29,-12.67l0 -0.09 0 0 0 -21.98z"/>
    <g>
     <path class="fil3" d="M1123.07 1571.85c0,-291.4 145.24,-548.87 367.27,-703.97 109.79,134.47 167.45,297.06 167.45,470.35 0,293.45 -169.84,547.23 -416.58,668.4 -75.08,-127.5 -118.15,-276.1 -118.15,-434.78z"/>
     <g style="clip-path:url(#id0)">
      <g>
       <path id="_1" class="fil4" d="M1436.87 1222.36c0,-440.56 219.59,-829.83 555.29,-1064.34 165.99,203.3 253.18,449.13 253.18,711.14 0,443.67 -256.79,827.36 -629.84,1010.55 -113.51,-192.77 -178.62,-417.46 -178.62,-657.36z"/>
      </g>
     </g>
     <path class="fil5" d="M1123.07 1571.85c0,-291.4 145.24,-548.87 367.27,-703.97 109.79,134.47 167.45,297.06 167.45,470.35 0,293.45 -169.84,547.23 -416.58,668.4 -75.08,-127.5 -118.15,-276.1 -118.15,-434.78z"/>
     <path class="fil6" d="M693.4 1571.85c0,-291.4 -145.24,-548.87 -367.27,-703.97 -109.79,134.47 -167.45,297.06 -167.45,470.35 0,293.45 169.84,547.23 416.59,668.4 75.07,-127.5 118.14,-276.1 118.14,-434.78z"/>
     <g style="clip-path:url(#id1)">
      <g>
       <path id="_1_0" class="fil4" d="M379.6 1222.36c0,-440.56 -219.59,-829.83 -555.29,-1064.34 -165.99,203.3 -253.18,449.13 -253.18,711.14 0,443.67 256.79,827.36 629.84,1010.55 113.51,-192.77 178.62,-417.46 178.62,-657.36z"/>
      </g>
     </g>
     <path class="fil5" d="M693.4 1571.85c0,-291.4 -145.24,-548.87 -367.27,-703.97 -109.79,134.47 -167.45,297.06 -167.45,470.35 0,293.45 169.84,547.23 416.59,668.4 75.07,-127.5 118.14,-276.1 118.14,-434.78z"/>
    </g>
    <g>
     <path class="fil7" d="M1319.23 1471l-204.91 0 -2.86 0 -430.39 0 -1.49 0 -211.78 0c-15.7,0 -29.22,5.38 -39.5,15.72l-185.95 186.99 -229.5 230.79c-16.87,16.96 -17.17,41.59 -0.72,58.86l841.74 884.1c10.26,10.78 24.1,16.45 40.18,16.46 16.09,0.01 29.93,-5.64 40.22,-16.41l844.43 -884.31c16.55,-17.33 16.2,-42.11 -0.84,-59.08l-228.32 -227.38 -190.97 -190.19c-10.28,-10.24 -23.72,-15.55 -39.34,-15.55z"/>
     <polygon class="fil0" points="467.8,1517.64 1319.23,1517.64 1738.52,1935.22 894.09,2819.53 52.35,1935.42 "/>
     <polygon class="fil8" points="468.14,1515.39 1319.23,1517.64 1738.52,1935.22 52.35,1935.42 "/>
     <polygon class="fil9" points="468.12,1935.37 895.78,1517.64 1319.24,1935.27 894.09,2819.53 "/>
    </g>
   </g>
   <g>
    <path class="fil10" d="M2130.41 2028.63l168.38 0 0 -41.55 -124.25 0 0 -66.38 110.15 0 0 -41.54 -110.15 0 0 -64.9 122.39 0 0 -41.54 -166.52 0 0 255.91zm290.39 4.45c51.56,0 92.72,-31.16 92.72,-79 0,-89 -137.22,-62.67 -137.22,-113.49 0,-20.03 19.65,-32.63 42.65,-32.63 25.59,0 44.88,15.2 44.88,35.6l45.25 0c0,-43.02 -38.57,-75.28 -89.38,-75.28 -49.33,0 -88.63,29.67 -88.63,75.65 0,87.16 136.85,64.16 136.85,114.98 0,20.39 -20.77,34.49 -46.73,34.49 -27.82,0 -49.34,-16.69 -49.34,-38.95l-45.25 0c0,44.51 40.43,78.63 94.2,78.63zm255.54 0c64.15,0 115.34,-40.43 127.95,-97.17l-46.73 0c-11.5,32.64 -43.03,54.51 -81.22,54.51 -50.44,0 -89.01,-38.57 -89.01,-89.75 0,-51.18 38.58,-89.75 89.01,-89.75 38.2,0 69.72,21.88 81.22,54.52l46.73 0c-12.61,-56.74 -63.79,-97.17 -127.95,-97.17 -76.4,0 -134.63,57.11 -134.63,132.4 0,75.29 58.22,132.41 134.63,132.41zm290.02 0c76.77,0 134.63,-57.11 134.63,-132.41 0,-75.28 -57.85,-132.4 -134.63,-132.4 -76.4,0 -134.63,57.11 -134.63,132.4 0,75.29 58.22,132.41 134.63,132.41zm0 -42.66c-50.44,0 -89.01,-38.57 -89.01,-89.75 0,-51.18 38.58,-89.75 89.01,-89.75 50.81,0 89.38,38.58 89.38,89.75 0,51.19 -38.58,89.75 -89.38,89.75zm176.9 38.21l157.25 0 0 -41.55 -113.12 0 0 -214.36 -44.14 0 0 255.91zm172.83 0l47.47 0 20.77 -54.52 116.46 0 20.77 54.52 48.59 0 -100.88 -255.91 -52.28 0 -100.88 255.91zm83.81 -95.32l42.66 -112.38 42.65 112.38 -85.3 0zm287.42 95.32l168.38 0 0 -41.55 -124.25 0 0 -66.38 110.15 0 0 -41.54 -110.15 0 0 -64.9 122.39 0 0 -41.54 -166.52 0 0 255.91zm290.4 4.45c51.55,0 92.71,-31.16 92.71,-79 0,-89 -137.22,-62.67 -137.22,-113.49 0,-20.03 19.65,-32.63 42.65,-32.63 25.59,0 44.88,15.2 44.88,35.6l45.25 0c0,-43.02 -38.57,-75.28 -89.38,-75.28 -49.33,0 -88.63,29.67 -88.63,75.65 0,87.16 136.85,64.16 136.85,114.98 0,20.39 -20.77,34.49 -46.73,34.49 -27.82,0 -49.33,-16.69 -49.33,-38.95l-45.25 0c0,44.51 40.42,78.63 94.2,78.63zm181.72 -4.45l44.14 0 0 -214.37 72.69 0 0 -41.54 -189.89 0 0 41.54 73.06 0 0 214.37zm100.14 0l47.47 0 20.77 -54.52 116.46 0 20.77 54.52 48.59 0 -100.88 -255.91 -52.29 0 -100.87 255.91zm83.81 -95.32l42.66 -112.38 42.65 112.38 -85.3 0zm199.9 95.32l99.39 0c74.55,0 130.18,-54.89 130.18,-127.96 0,-73.06 -55.62,-127.95 -130.18,-127.95l-99.39 0 0 255.91zm98.65 -214.37c48.96,0 85.67,37.09 85.67,86.41 0,49.33 -36.72,86.41 -85.67,86.41l-54.51 0 0 -172.82 54.51 0zm272.96 218.82c60.08,0 105.33,-44.14 105.33,-103.11l0 -157.24 -44.14 0 0 156.5c0,34.87 -25.97,61.19 -61.19,61.19 -34.87,0 -61.19,-26.33 -61.19,-61.19l0 -156.5 -43.77 0 0 157.24c0,58.97 45.25,103.11 104.96,103.11zm117.94 -4.45l47.48 0 20.76 -54.52 116.46 0 20.77 54.52 48.59 0 -100.88 -255.91 -52.28 0 -100.88 255.91zm83.81 -95.32l42.66 -112.38 42.65 112.38 -85.3 0zm199.9 95.32l157.25 0 0 -41.55 -113.12 0 0 -214.36 -44.14 0 0 255.91zm282.23 0l99.4 0c74.54,0 130.17,-54.89 130.17,-127.96 0,-73.06 -55.62,-127.95 -130.17,-127.95l-99.4 0 0 255.91zm98.65 -214.37c48.96,0 85.67,37.09 85.67,86.41 0,49.33 -36.72,86.41 -85.67,86.41l-54.51 0 0 -172.82 54.51 0zm173.2 214.37l168.37 0 0 -41.55 -124.25 0 0 -66.38 110.16 0 0 -41.54 -110.16 0 0 -64.9 122.4 0 0 -41.54 -166.52 0 0 255.91zm298.18 0l168.37 0 0 -41.55 -124.25 0 0 -66.38 110.15 0 0 -41.54 -110.15 0 0 -64.9 122.39 0 0 -41.54 -166.51 0 0 255.91zm210.65 0l99.39 0c74.55,0 130.18,-54.89 130.18,-127.96 0,-73.06 -55.62,-127.95 -130.18,-127.95l-99.39 0 0 255.91zm98.65 -214.37c48.96,0 85.67,37.09 85.67,86.41 0,49.33 -36.72,86.41 -85.67,86.41l-54.51 0 0 -172.82 54.51 0zm272.96 218.82c60.08,0 105.33,-44.14 105.33,-103.11l0 -157.24 -44.14 0 0 156.5c0,34.87 -25.97,61.19 -61.19,61.19 -34.87,0 -61.19,-26.33 -61.19,-61.19l0 -156.5 -43.77 0 0 157.24c0,58.97 45.26,103.11 104.96,103.11zm277.04 0c64.15,0 115.34,-40.43 127.95,-97.17l-46.73 0c-11.5,32.64 -43.03,54.51 -81.22,54.51 -50.45,0 -89.01,-38.57 -89.01,-89.75 0,-51.18 38.57,-89.75 89.01,-89.75 38.2,0 69.72,21.88 81.22,54.52l46.73 0c-12.61,-56.74 -63.79,-97.17 -127.95,-97.17 -76.4,0 -134.63,57.11 -134.63,132.4 0,75.29 58.22,132.41 134.63,132.41zm130.18 -4.45l47.47 0 20.77 -54.52 116.46 0 20.77 54.52 48.59 0 -100.88 -255.91 -52.29 0 -100.87 255.91zm83.81 -95.32l42.65 -112.38 42.66 112.38 -85.3 0zm310.05 183.58c23.74,0 41.54,-17.06 41.54,-38.94 0,-20.78 -15.21,-37.09 -35.6,-37.46l7.04 -8.17c57.11,-5.56 101.62,-44.13 113.49,-96.42l-46.73 0c-11.5,32.64 -43.03,54.51 -81.22,54.51 -50.45,0 -89.01,-38.57 -89.01,-89.75 0,-51.18 38.57,-89.75 89.01,-89.75 38.2,0 69.72,21.88 81.22,54.52l46.73 0c-12.61,-56.74 -63.79,-97.17 -127.95,-97.17 -76.4,0 -134.63,57.11 -134.63,132.4 0,70.46 50.81,124.99 119.79,131.66l-18.91 24.11 23.36 10.76c2.23,-2.6 6.68,-5.19 11.87,-5.19 8.53,0 16.32,6.67 16.32,15.95 0,8.9 -7.42,15.95 -16.32,15.95 -7.79,0 -13.72,-4.83 -15.95,-11.87l-25.59 0c2.23,19.65 19.29,34.86 41.54,34.86zm280.01 -369.01c25.96,0 40.43,-20.77 40.43,-48.96l-29.68 0c0,9.27 -6.67,16.32 -15.57,16.32 -14.47,0 -22.63,-17.44 -44.51,-17.44 -25.97,0 -40.06,21.52 -40.06,48.96l29.3 0c0,-8.9 6.68,-15.95 15.95,-15.95 14.09,0 22.25,17.07 44.14,17.07zm-151.32 280.75l47.47 0 20.77 -54.52 116.46 0 20.77 54.52 48.59 0 -100.88 -255.91 -52.29 0 -100.87 255.91zm83.81 -95.32l42.65 -112.38 42.66 112.38 -85.3 0zm308.57 99.77c76.77,0 134.63,-57.11 134.63,-132.41 0,-75.28 -57.85,-132.4 -134.63,-132.4 -76.4,0 -134.63,57.11 -134.63,132.4 0,75.29 58.22,132.41 134.63,132.41zm0 -42.66c-50.45,0 -89.01,-38.57 -89.01,-89.75 0,-51.18 38.57,-89.75 89.01,-89.75 50.81,0 89.38,38.58 89.38,89.75 0,51.19 -38.58,89.75 -89.38,89.75zm264.43 38.21l44.13 0 0 -89.38 69.73 0c48.96,0 85.66,-35.61 85.66,-83.08 0,-47.84 -36.71,-83.44 -85.66,-83.44l-113.86 0 0 255.91zm113.11 -214.37c23.37,0 41.17,17.8 41.17,41.91 0,23.74 -17.8,41.55 -41.17,41.55l-68.98 0 0 -83.45 68.98 0zm123.5 214.37l44.14 0 0 -95.32 34.87 0 34.87 54.14c15.95,27.82 40.42,41.18 74.17,41.18l14.09 0 0 -41.55 -9.64 0c-15.21,0 -27.82,-6.67 -37.46,-20.4l-24.48 -35.23c38.2,-7.42 65.27,-37.84 65.27,-77.51 0,-46.37 -36.35,-81.22 -83.82,-81.22l-112.01 0 0 255.91zm110.9 -214.37c22.63,0 39.68,17.06 39.68,40.06 0,22.99 -17.05,40.43 -39.68,40.43l-66.76 0 0 -80.48 66.76 0zm247.37 218.82c76.77,0 134.63,-57.11 134.63,-132.41 0,-75.28 -57.85,-132.4 -134.63,-132.4 -76.39,0 -134.62,57.11 -134.62,132.4 0,75.29 58.22,132.41 134.62,132.41zm0 -42.66c-50.44,0 -89,-38.57 -89,-89.75 0,-51.18 38.57,-89.75 89,-89.75 50.82,0 89.38,38.58 89.38,89.75 0,51.19 -38.57,89.75 -89.38,89.75zm176.91 38.21l44.14 0 0 -105.33 101.61 0 0 -41.55 -101.61 0 0 -67.49 116.82 0 0 -41.54 -160.95 0 0 255.91zm200.64 0l44.14 0 0 -255.91 -44.14 0 0 255.91zm179.5 4.45c51.56,0 92.72,-31.16 92.72,-79 0,-89 -137.23,-62.67 -137.23,-113.49 0,-20.03 19.66,-32.63 42.66,-32.63 25.59,0 44.88,15.2 44.88,35.6l45.25 0c0,-43.02 -38.58,-75.28 -89.38,-75.28 -49.33,0 -88.64,29.67 -88.64,75.65 0,87.16 136.86,64.16 136.86,114.98 0,20.39 -20.77,34.49 -46.74,34.49 -27.82,0 -49.33,-16.69 -49.33,-38.95l-45.25 0c0,44.51 40.43,78.63 94.2,78.63zm214.37 0c51.55,0 92.71,-31.16 92.71,-79 0,-89 -137.22,-62.67 -137.22,-113.49 0,-20.03 19.65,-32.63 42.65,-32.63 25.59,0 44.88,15.2 44.88,35.6l45.25 0c0,-43.02 -38.57,-75.28 -89.38,-75.28 -49.33,0 -88.63,29.67 -88.63,75.65 0,87.16 136.85,64.16 136.85,114.98 0,20.39 -20.77,34.49 -46.73,34.49 -27.82,0 -49.33,-16.69 -49.33,-38.95l-45.25 0c0,44.51 40.42,78.63 94.2,78.63zm134.25 -4.45l44.14 0 0 -255.91 -44.14 0 0 255.91zm220.67 4.45c76.77,0 134.63,-57.11 134.63,-132.41 0,-75.28 -57.85,-132.4 -134.63,-132.4 -76.4,0 -134.63,57.11 -134.63,132.4 0,75.29 58.22,132.41 134.63,132.41zm0 -42.66c-50.44,0 -89,-38.57 -89,-89.75 0,-51.18 38.57,-89.75 89,-89.75 50.82,0 89.38,38.58 89.38,89.75 0,51.19 -38.57,89.75 -89.38,89.75zm176.91 38.21l44.13 0 0 -180.99 127.96 180.99 44.88 0 0 -255.91 -44.14 0 0 180.98 -127.95 -180.98 -44.88 0 0 255.91zm246.63 0l47.48 0 20.77 -54.52 116.45 0 20.78 54.52 48.58 0 -100.87 -255.91 -52.29 0 -100.88 255.91zm83.82 -95.32l42.65 -112.38 42.65 112.38 -85.29 0zm199.89 95.32l157.25 0 0 -41.55 -113.12 0 0 -214.36 -44.14 0 0 255.91z"/>
    <g>
     <path class="fil10" d="M2130.41 1430.6l280.05 0 0 -586.48 221.4 439.87 158.35 0 221.4 -439.87 0 586.48 280.04 0 0 -1011.69 -341.63 0 -236.07 467.72 -237.52 -467.72 -346.04 0 0 1011.69zm1211.61 0l300.57 0 45.46 -139.29 359.22 0 45.46 139.29 306.44 0 -363.62 -1011.69 -329.9 0 -363.61 1011.69zm428.13 -397.34l98.24 -303.51 96.77 303.51 -195.01 0zm679.37 397.34l280.04 0 0 -313.77 42.53 0 52.78 101.17c74.77,142.23 205.27,212.6 394.41,212.6l80.64 0 0 -263.92 -49.86 0c-70.37,0 -123.16,-24.92 -161.28,-77.7l-2.93 -4.4c124.63,-52.78 206.73,-167.15 206.73,-309.37 0,-203.81 -161.27,-356.3 -373.87,-356.3l-469.19 0 0 1011.69zm463.33 -747.77c52.78,0 92.37,41.06 92.37,95.3 0,54.25 -39.59,95.31 -92.37,95.31l-183.28 0 0 -190.61 183.28 0zm484.36 747.77l280.04 0 0 -1011.69 -280.04 0 0 1011.69zm330.41 0l300.58 0 45.45 -139.29 359.23 0 45.46 139.29 306.44 0 -363.62 -1011.69 -329.9 0 -363.62 1011.69zm428.14 -397.34l98.23 -303.51 96.77 303.51 -195 0z"/>
     <path class="fil10" d="M8305.36 222.81l402.91 -46.64 -61.32 145.2 -402.91 46.64 61.32 -145.2zm-893.1 1207.79c269.78,0 482.38,-175.95 521.97,-420.8l-297.63 0c-30.8,90.9 -118.77,151.02 -224.34,151.02 -142.23,0 -250.72,-108.5 -250.72,-253.66 0,-145.16 108.49,-253.66 250.72,-253.66 105.57,0 193.54,60.12 224.34,151.03l297.63 0c-39.59,-244.86 -252.19,-420.8 -521.97,-420.8 -306.44,0 -538.11,225.79 -538.11,523.43 0,297.64 231.67,523.44 538.11,523.44zm616.32 -17.6l692.06 0 0 -263.92 -412.02 0 0 -112.89 357.77 0 0 -263.92 -357.77 0 0 -107.02 404.68 0 0 -263.92 -684.72 0 0 1011.68zm798.13 0l648.08 0 0 -263.92 -368.03 0 0 -747.76 -280.04 0 0 1011.68zm738.02 0l280.04 0 0 -1011.68 -280.04 0 0 1011.68zm330.41 0l300.58 0 45.46 -139.28 359.22 0 45.46 139.28 306.44 0 -363.62 -1011.68 -329.9 0 -363.62 1011.68zm428.15 -397.34l98.23 -303.51 96.77 303.51 -195 0z"/>
    </g>
   </g>
  </g>
 </g>
</svg>
