<?xml version="1.0" encoding="UTF-8"?>
<!DOCTYPE svg PUBLIC "-//W3C//DTD SVG 1.1//EN" "http://www.w3.org/Graphics/SVG/1.1/DTD/svg11.dtd">
<!-- Creator: CorelDRAW 2021 (64 Bit) -->
<svg xmlns="http://www.w3.org/2000/svg" xml:space="preserve" width="109.533mm" height="28.6421mm" version="1.1" style="shape-rendering:geometricPrecision; text-rendering:geometricPrecision; image-rendering:optimizeQuality; fill-rule:evenodd; clip-rule:evenodd"
viewBox="0 0 10952.28 2863.93"
 xmlns:xlink="http://www.w3.org/1999/xlink"
 xmlns:xodm="http://www.corel.com/coreldraw/odm/2003">
 <defs>
  <style type="text/css">
   <![CDATA[
    .fil5 {fill:none}
    .fil2 {fill:#0C1B20}
    .fil7 {fill:#C9E7F5}
    .fil8 {fill:#E9F5FB}
    .fil0 {fill:#F8FCFE}
    .fil10 {fill:#0C1620;fill-rule:nonzero}
    .fil4 {fill:#4E3822;fill-opacity:0.149020}
    .fil9 {fill:#C9E7F5;fill-opacity:0.501961}
    .fil1 {fill:url(#id2)}
    .fil3 {fill:url(#id3)}
    .fil6 {fill:url(#id4)}
   ]]>
  </style>
      <clipPath id="id0">
       <path d="M1123.07 1571.85c0,-291.39 145.24,-548.86 367.27,-703.96 109.79,134.46 167.45,297.05 167.45,470.35 0,293.45 -169.83,547.23 -416.58,668.4 -75.08,-127.51 -118.15,-276.11 -118.15,-434.79z"/>
      </clipPath>
      <clipPath id="id1">
       <path d="M693.4 1571.85c0,-291.39 -145.24,-548.86 -367.27,-703.96 -109.79,134.46 -167.45,297.05 -167.45,470.35 0,293.45 169.84,547.23 416.59,668.4 75.07,-127.51 118.14,-276.11 118.14,-434.79z"/>
      </clipPath>
  <linearGradient id="id2" gradientUnits="userSpaceOnUse" x1="908.72" y1="438.19" x2="915.56" y2="1310.56">
   <stop offset="0" style="stop-opacity:1; stop-color:#5D4229"/>
   <stop offset="0.411765" style="stop-opacity:1; stop-color:#6B4A2C"/>
   <stop offset="1" style="stop-opacity:1; stop-color:#7A5230"/>
  </linearGradient>
  <linearGradient id="id3" gradientUnits="userSpaceOnUse" x1="1808.21" y1="1435.2" x2="1123.07" y2="1437.26">
   <stop offset="0" style="stop-opacity:1; stop-color:#5D4229"/>
   <stop offset="1" style="stop-opacity:1; stop-color:#7A5230"/>
  </linearGradient>
  <linearGradient id="id4" gradientUnits="userSpaceOnUse" xlink:href="#id3" x1="-111.81" y1="1446.21" x2="693.4" y2="1437.26">
  </linearGradient>
 </defs>
 <g id="Camada_x0020_1">
  <metadata id="CorelCorpID_0Corel-Layer"/>
  <g id="_2784855457536">
   <g>
    <path class="fil0" d="M1271.66 1064.18c-244.46,201.17 -551.48,174.29 -755.91,-8.62 80.7,129.37 135.16,280.59 154.78,444.12l8.47 0 1.49 0 428.14 0 2.85 0 32.71 0c21.9,-182.56 87.22,-349.8 184.02,-488.41 -18.06,19.11 -36.98,36.82 -56.54,52.91z"/>
    <circle class="fil0" cx="908.24" cy="627.29" r="523.98"/>
    <path class="fil1" d="M1177.08 324.4c134.68,0 289.17,115.86 305.67,268.21 14.2,118.41 -22.93,242.85 -90.17,345.81 -38.76,59.35 -87.77,111.36 -142.16,151.53 -379.55,280.32 -919.69,35.35 -919.69,-460.73 0,-165.88 135.79,-304.82 306.62,-304.82 117.15,0 218.83,66.08 269.86,162.99 51.04,-96.91 135.19,-162.99 269.86,-162.99zm-306.46 501.03c4.62,32.04 17.6,62.62 37.63,90.96 19.59,-27.73 32.45,-57.62 37.32,-88.92 55.9,65.23 138.88,106.57 231.52,106.57 43.05,0 84,-8.94 121.12,-25.03 -7.28,20.98 -63.69,74.41 -84.16,92.81 -163.05,146.56 -450.58,146.56 -613.64,0 -20.46,-18.39 -76.87,-71.84 -84.16,-92.81 37.13,16.09 78.08,25.03 121.12,25.03 93.61,0 177.35,-42.21 233.27,-108.61zm-237.06 -405.52c116.31,0 210.6,94.28 210.6,210.59 0,116.31 -94.29,210.59 -210.6,210.59 -116.3,0 -210.59,-94.28 -210.59,-210.59 0,-116.31 94.29,-210.59 210.59,-210.59zm547.06 0c116.31,0 210.59,94.28 210.59,210.59 0,116.31 -94.28,210.59 -210.59,210.59 -116.31,0 -210.59,-94.28 -210.59,-210.59 0,-116.31 94.28,-210.59 210.59,-210.59z"/>
    <path class="fil2" d="M1181.24 509.94c66.58,0 120.57,53.97 120.57,120.56 0,66.58 -53.98,120.57 -120.57,120.57 -66.58,0 -120.57,-53.98 -120.57,-120.57 0,-13.66 2.28,-26.79 6.47,-39.03 4.8,1.23 9.84,1.88 15.03,1.88 33.41,0 60.48,-27.08 60.48,-60.48 0,-5.5 -0.74,-10.82 -2.11,-15.88 12.71,-4.56 26.42,-7.05 40.7,-7.05z"/>
    <path class="fil2" d="M634.18 509.94c66.58,0 120.57,53.97 120.57,120.56 0,66.58 -53.98,120.57 -120.57,120.57 -66.58,0 -120.56,-53.98 -120.56,-120.57 0,-13.66 2.27,-26.79 6.46,-39.03 4.81,1.23 9.84,1.88 15.03,1.88 33.41,0 60.48,-27.08 60.48,-60.48 0,-5.5 -0.74,-10.82 -2.11,-15.88 12.72,-4.56 26.42,-7.05 40.7,-7.05z"/>
    <path class="fil2" d="M1443.38 403.23l0 -58.25 0 -198.05 0 -43.52 0 -0.1 93.84 0 0 172.32c-29.59,16.82 -45.68,53.33 -26.04,91.15 3.02,5.82 5.57,7.28 8.24,12.57 -10.59,28.18 -16.66,30.81 -24.22,73.47 -5.65,31.97 -7.11,59.15 -7.39,91.57 -0.34,40.43 18.59,42.2 55.88,42.33 27.43,0.09 73.92,5.71 88.22,-12.33 19.24,-24.27 -3.5,-141.53 -14.45,-171.2 -8.5,-23.06 -14.78,-18.42 -6.09,-31.05 27.03,-39.25 5.86,-81.76 -21.41,-96.19l0 -172.64c27.51,0 54.93,-0.16 82.27,-0.16 6.43,0 11.68,-5.25 11.68,-11.68l0 -79.78c0,-6.43 -5.25,-11.69 -11.68,-11.69 -509.47,0 -1018.55,0 -1528.02,0 -6.43,0 -11.68,5.26 -11.68,11.69l0 79.78c0,6.43 5.25,11.68 11.68,11.68 76.33,0 152.66,0 228.99,0l0 0.1 0 43.52 0 198.21 0 58.09 0 22.01 0 1.21 0.06 0.03c0.53,5.42 4.44,9.84 9.58,11.13l0 0.18 525.41 106.37 523.83 -106.02c6.35,-0.73 11.29,-6.13 11.29,-12.68l0 -0.09 0 0 0 -21.98z"/>
    <g>
     <path class="fil3" d="M1123.07 1571.85c0,-291.39 145.24,-548.86 367.27,-703.96 109.79,134.46 167.45,297.05 167.45,470.35 0,293.45 -169.83,547.23 -416.58,668.4 -75.08,-127.51 -118.15,-276.11 -118.15,-434.79z"/>
     <g style="clip-path:url(#id0)">
      <g>
       <path id="_1" class="fil4" d="M1436.87 1222.36c0,-440.56 219.59,-829.82 555.29,-1064.33 165.99,203.29 253.18,449.12 253.18,711.13 0,443.68 -256.79,827.36 -629.84,1010.56 -113.51,-192.78 -178.62,-417.46 -178.62,-657.37z"/>
      </g>
     </g>
     <path class="fil5" d="M1123.07 1571.85c0,-291.39 145.24,-548.86 367.27,-703.96 109.79,134.46 167.45,297.05 167.45,470.35 0,293.45 -169.83,547.23 -416.58,668.4 -75.08,-127.51 -118.15,-276.11 -118.15,-434.79z"/>
     <path class="fil6" d="M693.4 1571.85c0,-291.39 -145.24,-548.86 -367.27,-703.96 -109.79,134.46 -167.45,297.05 -167.45,470.35 0,293.45 169.84,547.23 416.59,668.4 75.07,-127.51 118.14,-276.11 118.14,-434.79z"/>
     <g style="clip-path:url(#id1)">
      <g>
       <path id="_1_0" class="fil4" d="M379.6 1222.36c0,-440.56 -219.59,-829.82 -555.29,-1064.33 -165.99,203.29 -253.18,449.12 -253.18,711.13 0,443.68 256.79,827.36 629.84,1010.56 113.51,-192.78 178.62,-417.46 178.62,-657.37z"/>
      </g>
     </g>
     <path class="fil5" d="M693.4 1571.85c0,-291.39 -145.24,-548.86 -367.27,-703.96 -109.79,134.46 -167.45,297.05 -167.45,470.35 0,293.45 169.84,547.23 416.59,668.4 75.07,-127.51 118.14,-276.11 118.14,-434.79z"/>
    </g>
    <g>
     <path class="fil7" d="M1319.24 1471l-204.92 0 -2.86 0 -430.38 0 -1.5 0 -211.78 0c-15.7,0 -29.22,5.38 -39.5,15.72l-185.95 187 -229.5 230.78c-16.87,16.97 -17.17,41.6 -0.72,58.86l841.74 884.1c10.26,10.78 24.1,16.45 40.19,16.46 16.08,0.02 29.92,-5.64 40.21,-16.41l844.43 -884.3c16.55,-17.34 16.2,-42.12 -0.84,-59.08l-228.32 -227.38 -190.97 -190.19c-10.28,-10.24 -23.72,-15.56 -39.33,-15.56z"/>
     <polygon class="fil0" points="467.8,1517.65 1319.23,1517.65 1738.52,1935.22 894.09,2819.53 52.35,1935.43 "/>
     <polygon class="fil8" points="468.14,1515.4 1319.23,1517.65 1738.52,1935.22 52.35,1935.43 "/>
     <polygon class="fil9" points="468.12,1935.38 895.78,1517.65 1319.25,1935.27 894.09,2819.53 "/>
    </g>
   </g>
   <g>
    <path class="fil10" d="M2130.41 2028.63l168.38 0 0 -41.54 -124.25 0 0 -66.39 110.15 0 0 -41.54 -110.15 0 0 -64.89 122.39 0 0 -41.54 -166.52 0 0 255.9zm290.4 4.45c51.55,0 92.71,-31.15 92.71,-78.99 0,-89.01 -137.22,-62.68 -137.22,-113.49 0,-20.03 19.65,-32.64 42.65,-32.64 25.59,0 44.88,15.21 44.88,35.61l45.25 0c0,-43.03 -38.57,-75.29 -89.38,-75.29 -49.33,0 -88.63,29.68 -88.63,75.66 0,87.15 136.85,64.16 136.85,114.97 0,20.4 -20.77,34.49 -46.73,34.49 -27.82,0 -49.33,-16.69 -49.33,-38.94l-45.26 0c0,44.51 40.43,78.62 94.21,78.62zm255.53 0c64.15,0 115.34,-40.43 127.95,-97.17l-46.73 0c-11.5,32.64 -43.03,54.52 -81.22,54.52 -50.44,0 -89.01,-38.58 -89.01,-89.75 0,-51.19 38.58,-89.75 89.01,-89.75 38.2,0 69.72,21.88 81.22,54.51l46.73 0c-12.61,-56.74 -63.79,-97.17 -127.95,-97.17 -76.4,0 -134.63,57.11 -134.63,132.41 0,75.28 58.22,132.4 134.63,132.4zm290.02 0c76.77,0 134.63,-57.11 134.63,-132.4 0,-75.29 -57.85,-132.41 -134.63,-132.41 -76.4,0 -134.63,57.11 -134.63,132.41 0,75.28 58.22,132.4 134.63,132.4zm0 -42.65c-50.44,0 -89.01,-38.58 -89.01,-89.75 0,-51.19 38.58,-89.75 89.01,-89.75 50.82,0 89.38,38.57 89.38,89.75 0,51.18 -38.57,89.75 -89.38,89.75zm176.9 38.2l157.25 0 0 -41.54 -113.12 0 0 -214.36 -44.14 0 0 255.9zm172.83 0l47.48 0 20.76 -54.51 116.46 0 20.77 54.51 48.59 0 -100.87 -255.9 -52.29 0 -100.88 255.9zm83.81 -95.31l42.66 -112.38 42.65 112.38 -85.3 0zm287.42 95.31l168.38 0 0 -41.54 -124.25 0 0 -66.39 110.15 0 0 -41.54 -110.15 0 0 -64.89 122.39 0 0 -41.54 -166.52 0 0 255.9zm290.4 4.45c51.55,0 92.71,-31.15 92.71,-78.99 0,-89.01 -137.22,-62.68 -137.22,-113.49 0,-20.03 19.65,-32.64 42.65,-32.64 25.59,0 44.88,15.21 44.88,35.61l45.25 0c0,-43.03 -38.57,-75.29 -89.38,-75.29 -49.33,0 -88.63,29.68 -88.63,75.66 0,87.15 136.85,64.16 136.85,114.97 0,20.4 -20.77,34.49 -46.73,34.49 -27.82,0 -49.33,-16.69 -49.33,-38.94l-45.25 0c0,44.51 40.42,78.62 94.2,78.62zm181.72 -4.45l44.14 0 0 -214.36 72.69 0 0 -41.54 -189.89 0 0 41.54 73.06 0 0 214.36zm100.14 0l47.47 0 20.77 -54.51 116.46 0 20.77 54.51 48.59 0 -100.88 -255.9 -52.29 0 -100.87 255.9zm83.81 -95.31l42.66 -112.38 42.65 112.38 -85.3 0zm199.9 95.31l99.39 0c74.55,0 130.18,-54.89 130.18,-127.95 0,-73.06 -55.62,-127.95 -130.18,-127.95l-99.39 0 0 255.9zm98.65 -214.36c48.96,0 85.67,37.09 85.67,86.41 0,49.33 -36.72,86.41 -85.67,86.41l-54.51 0 0 -172.82 54.51 0zm272.96 218.81c60.08,0 105.33,-44.14 105.33,-103.1l0 -157.24 -44.14 0 0 156.5c0,34.86 -25.97,61.19 -61.19,61.19 -34.87,0 -61.19,-26.34 -61.19,-61.19l0 -156.5 -43.77 0 0 157.24c0,58.96 45.26,103.1 104.96,103.1zm117.94 -4.45l47.48 0 20.76 -54.51 116.46 0 20.77 54.51 48.59 0 -100.87 -255.9 -52.29 0 -100.88 255.9zm83.81 -95.31l42.66 -112.38 42.65 112.38 -85.3 0zm199.9 95.31l157.25 0 0 -41.54 -113.12 0 0 -214.36 -44.14 0 0 255.9zm282.23 0l99.4 0c74.54,0 130.17,-54.89 130.17,-127.95 0,-73.06 -55.62,-127.95 -130.17,-127.95l-99.4 0 0 255.9zm98.65 -214.36c48.96,0 85.67,37.09 85.67,86.41 0,49.33 -36.72,86.41 -85.67,86.41l-54.51 0 0 -172.82 54.51 0zm173.2 214.36l168.37 0 0 -41.54 -124.24 0 0 -66.39 110.15 0 0 -41.54 -110.15 0 0 -64.89 122.39 0 0 -41.54 -166.52 0 0 255.9zm298.18 0l168.37 0 0 -41.54 -124.25 0 0 -66.39 110.15 0 0 -41.54 -110.15 0 0 -64.89 122.4 0 0 -41.54 -166.52 0 0 255.9zm210.65 0l99.39 0c74.55,0 130.18,-54.89 130.18,-127.95 0,-73.06 -55.62,-127.95 -130.18,-127.95l-99.39 0 0 255.9zm98.65 -214.36c48.96,0 85.67,37.09 85.67,86.41 0,49.33 -36.72,86.41 -85.67,86.41l-54.51 0 0 -172.82 54.51 0zm272.96 218.81c60.08,0 105.33,-44.14 105.33,-103.1l0 -157.24 -44.14 0 0 156.5c0,34.86 -25.96,61.19 -61.19,61.19 -34.86,0 -61.19,-26.34 -61.19,-61.19l0 -156.5 -43.76 0 0 157.24c0,58.96 45.25,103.1 104.95,103.1zm277.04 0c64.15,0 115.34,-40.43 127.95,-97.17l-46.73 0c-11.5,32.64 -43.03,54.52 -81.22,54.52 -50.45,0 -89.01,-38.58 -89.01,-89.75 0,-51.19 38.57,-89.75 89.01,-89.75 38.2,0 69.72,21.88 81.22,54.51l46.73 0c-12.61,-56.74 -63.79,-97.17 -127.95,-97.17 -76.4,0 -134.63,57.11 -134.63,132.41 0,75.28 58.22,132.4 134.63,132.4zm130.18 -4.45l47.47 0 20.77 -54.51 116.46 0 20.77 54.51 48.59 0 -100.88 -255.9 -52.29 0 -100.87 255.9zm83.81 -95.31l42.66 -112.38 42.65 112.38 -85.3 0zm310.05 183.58c23.74,0 41.54,-17.07 41.54,-38.95 0,-20.77 -15.2,-37.09 -35.6,-37.46l7.04 -8.16c57.11,-5.56 101.62,-44.14 113.49,-96.43l-46.73 0c-11.5,32.64 -43.03,54.52 -81.22,54.52 -50.44,0 -89.01,-38.58 -89.01,-89.75 0,-51.19 38.58,-89.75 89.01,-89.75 38.2,0 69.72,21.88 81.22,54.51l46.73 0c-12.61,-56.74 -63.79,-97.17 -127.95,-97.17 -76.4,0 -134.63,57.11 -134.63,132.41 0,70.46 50.81,124.98 119.79,131.66l-18.91 24.11 23.36 10.75c2.23,-2.59 6.68,-5.19 11.87,-5.19 8.53,0 16.32,6.68 16.32,15.95 0,8.9 -7.41,15.95 -16.32,15.95 -7.79,0 -13.72,-4.82 -15.95,-11.87l-25.59 0c2.23,19.66 19.29,34.87 41.54,34.87zm280.01 -369.02c25.96,0 40.43,-20.77 40.43,-48.96l-29.68 0c0,9.28 -6.67,16.32 -15.57,16.32 -14.47,0 -22.63,-17.43 -44.51,-17.43 -25.97,0 -40.06,21.51 -40.06,48.96l29.3 0c0,-8.9 6.68,-15.95 15.95,-15.95 14.09,0 22.25,17.06 44.14,17.06zm-151.32 280.75l47.47 0 20.77 -54.51 116.46 0 20.77 54.51 48.59 0 -100.88 -255.9 -52.29 0 -100.87 255.9zm83.81 -95.31l42.66 -112.38 42.65 112.38 -85.3 0zm308.57 99.76c76.77,0 134.63,-57.11 134.63,-132.4 0,-75.29 -57.85,-132.41 -134.63,-132.41 -76.4,0 -134.63,57.11 -134.63,132.41 0,75.28 58.22,132.4 134.63,132.4zm0 -42.65c-50.44,0 -89.01,-38.58 -89.01,-89.75 0,-51.19 38.58,-89.75 89.01,-89.75 50.81,0 89.38,38.57 89.38,89.75 0,51.18 -38.58,89.75 -89.38,89.75zm264.43 38.2l44.13 0 0 -89.38 69.73 0c48.96,0 85.67,-35.61 85.67,-83.07 0,-47.85 -36.72,-83.44 -85.67,-83.44l-113.86 0 0 255.9zm113.11 -214.36c23.37,0 41.18,17.8 41.18,41.91 0,23.74 -17.81,41.54 -41.18,41.54l-68.98 0 0 -83.44 68.98 0zm123.51 214.36l44.13 0 0 -95.31 34.87 0 34.87 54.14c15.95,27.82 40.42,41.17 74.17,41.17l14.09 0 0 -41.54 -9.64 0c-15.21,0 -27.82,-6.68 -37.46,-20.4l-24.48 -35.24c38.2,-7.42 65.27,-37.83 65.27,-77.51 0,-46.36 -36.35,-81.21 -83.82,-81.21l-112 0 0 255.9zm110.89 -214.36c22.63,0 39.69,17.06 39.69,40.05 0,23 -17.06,40.43 -39.69,40.43l-66.76 0 0 -80.47 66.76 0zm247.38 218.81c76.76,0 134.63,-57.11 134.63,-132.4 0,-75.29 -57.86,-132.41 -134.63,-132.41 -76.4,0 -134.63,57.11 -134.63,132.41 0,75.28 58.22,132.4 134.63,132.4zm0 -42.65c-50.45,0 -89.01,-38.58 -89.01,-89.75 0,-51.19 38.57,-89.75 89.01,-89.75 50.81,0 89.37,38.57 89.37,89.75 0,51.18 -38.57,89.75 -89.37,89.75zm176.9 38.2l44.14 0 0 -105.33 101.62 0 0 -41.54 -101.62 0 0 -67.49 116.82 0 0 -41.54 -160.95 0 0 255.9zm200.64 0l44.14 0 0 -255.9 -44.14 0 0 255.9zm179.5 4.45c51.56,0 92.72,-31.15 92.72,-78.99 0,-89.01 -137.23,-62.68 -137.23,-113.49 0,-20.03 19.66,-32.64 42.66,-32.64 25.59,0 44.88,15.21 44.88,35.61l45.25 0c0,-43.03 -38.57,-75.29 -89.38,-75.29 -49.33,0 -88.64,29.68 -88.64,75.66 0,87.15 136.86,64.16 136.86,114.97 0,20.4 -20.77,34.49 -46.74,34.49 -27.82,0 -49.33,-16.69 -49.33,-38.94l-45.25 0c0,44.51 40.43,78.62 94.2,78.62zm214.37 0c51.55,0 92.71,-31.15 92.71,-78.99 0,-89.01 -137.22,-62.68 -137.22,-113.49 0,-20.03 19.65,-32.64 42.65,-32.64 25.59,0 44.88,15.21 44.88,35.61l45.25 0c0,-43.03 -38.57,-75.29 -89.38,-75.29 -49.33,0 -88.63,29.68 -88.63,75.66 0,87.15 136.85,64.16 136.85,114.97 0,20.4 -20.77,34.49 -46.73,34.49 -27.82,0 -49.33,-16.69 -49.33,-38.94l-45.25 0c0,44.51 40.42,78.62 94.2,78.62zm134.25 -4.45l44.14 0 0 -255.9 -44.14 0 0 255.9zm220.67 4.45c76.77,0 134.63,-57.11 134.63,-132.4 0,-75.29 -57.85,-132.41 -134.63,-132.41 -76.39,0 -134.62,57.11 -134.62,132.41 0,75.28 58.22,132.4 134.62,132.4zm0 -42.65c-50.44,0 -89,-38.58 -89,-89.75 0,-51.19 38.57,-89.75 89,-89.75 50.82,0 89.38,38.57 89.38,89.75 0,51.18 -38.57,89.75 -89.38,89.75zm176.91 38.2l44.14 0 0 -180.98 127.95 180.98 44.88 0 0 -255.9 -44.14 0 0 180.98 -127.95 -180.98 -44.88 0 0 255.9zm246.63 0l47.48 0 20.77 -54.51 116.45 0 20.78 54.51 48.58 0 -100.87 -255.9 -52.29 0 -100.88 255.9zm83.82 -95.31l42.65 -112.38 42.66 112.38 -85.3 0zm199.89 95.31l157.25 0 0 -41.54 -113.12 0 0 -214.36 -44.14 0 0 255.9z"/>
    <g>
     <path class="fil10" d="M2130.41 1430.61l280.05 0 0 -586.49 221.4 439.87 158.35 0 221.4 -439.87 0 586.49 280.04 0 0 -1011.69 -341.63 0 -236.07 467.72 -237.52 -467.72 -346.04 0 0 1011.69zm1211.61 0l300.57 0 45.46 -139.3 359.22 0 45.46 139.3 306.44 0 -363.62 -1011.69 -329.9 0 -363.61 1011.69zm428.13 -397.35l98.24 -303.5 96.77 303.5 -195.01 0zm679.37 397.35l280.05 0 0 -313.77 42.52 0 52.78 101.16c74.77,142.23 205.27,212.61 394.41,212.61l80.64 0 0 -263.92 -49.86 0c-70.37,0 -123.16,-24.93 -161.28,-77.71l-2.93 -4.39c124.63,-52.78 206.74,-167.15 206.74,-309.38 0,-203.8 -161.28,-356.29 -373.88,-356.29l-469.19 0 0 1011.69zm463.33 -747.78c52.78,0 92.37,41.06 92.37,95.31 0,54.24 -39.59,95.3 -92.37,95.3l-183.27 0 0 -190.61 183.27 0zm484.36 747.78l280.04 0 0 -1011.69 -280.04 0 0 1011.69zm330.41 0l300.58 0 45.45 -139.3 359.23 0 45.46 139.3 306.44 0 -363.62 -1011.69 -329.9 0 -363.62 1011.69zm428.14 -397.35l98.23 -303.5 96.77 303.5 -195 0z"/>
     <path class="fil10" d="M8305.36 222.82l402.91 -46.64 -61.32 145.2 -402.91 46.63 61.32 -145.19zm-893.1 1207.79c269.78,0 482.38,-175.95 521.97,-420.81l-297.63 0c-30.79,90.91 -118.77,151.02 -224.34,151.02 -142.23,0 -250.72,-108.5 -250.72,-253.65 0,-145.16 108.49,-253.66 250.72,-253.66 105.57,0 193.55,60.11 224.34,151.02l297.63 0c-39.59,-244.86 -252.19,-420.8 -521.97,-420.8 -306.44,0 -538.11,225.8 -538.11,523.44 0,297.63 231.67,523.44 538.11,523.44zm616.32 -17.6l692.06 0 0 -263.92 -412.01 0 0 -112.89 357.76 0 0 -263.93 -357.76 0 0 -107.01 404.67 0 0 -263.93 -684.72 0 0 1011.69zm798.13 0l648.08 0 0 -263.92 -368.03 0 0 -747.77 -280.04 0 0 1011.69zm738.02 0l280.04 0 0 -1011.69 -280.04 0 0 1011.69zm330.41 0l300.58 0 45.46 -139.29 359.22 0 45.46 139.29 306.44 0 -363.62 -1011.69 -329.9 0 -363.62 1011.69zm428.15 -397.35l98.23 -303.5 96.77 303.5 -195 0z"/>
    </g>
   </g>
  </g>
 </g>
</svg>
